<svg width="59" height="69" viewBox="0 0 59 69" fill="none" xmlns="http://www.w3.org/2000/svg">
<g clip-path="url(#clip0)">
<path d="M1.93729e-10 19.77V48.414C-3.79424e-07 49.3823 0.251998 50.334 0.731222 51.1755C1.21045 52.017 1.9004 52.7193 2.73326 53.2134L26.6529 67.403C27.5146 67.9141 28.4981 68.1839 29.5 68.1839C30.5019 68.1839 31.4854 67.9141 32.3471 67.403L56.2667 53.2133C57.0996 52.7193 57.7895 52.017 58.2688 51.1755C58.748 50.334 59 49.3823 59 48.414V19.77C59 18.8016 58.748 17.8499 58.2688 17.0084C57.7896 16.1669 57.0996 15.4646 56.2668 14.9705L32.3471 0.780953C31.4854 0.269759 30.5019 0 29.5 0C28.4981 0 27.5146 0.269759 26.6529 0.780953L2.73326 14.9705C1.90039 15.4645 1.21044 16.1668 0.731211 17.0083C0.251986 17.8498 -8.06783e-06 18.8016 1.93728e-10 19.77H1.93729e-10Z" fill="#008200"/>
<path d="M10.3916 22.6248H8.25781C8.00488 22.551 7.87891 22.4876 7.87891 22.4348C7.87891 22.3714 8.00521 22.3025 8.25781 22.2283H19.7183C19.8186 22.2255 19.9184 22.2445 20.0107 22.284C20.0908 22.3211 20.1313 22.366 20.1313 22.4187C20.1313 22.4822 20.0908 22.5325 20.0107 22.5696C19.9184 22.6089 19.8186 22.6277 19.7183 22.6248H17.4468V45.6692H18.8975C19.8231 45.6861 20.745 45.5494 21.626 45.2649C22.5194 44.9165 23.3055 44.3394 23.9058 43.5916C24.9556 42.3995 25.7595 41.0118 26.2715 39.5081C26.6215 38.5917 26.8818 37.6436 27.0488 36.677C27.0499 36.6229 27.0622 36.5695 27.0848 36.5204C27.1075 36.4712 27.1402 36.4273 27.1807 36.3914L27.4443 36.344L27.7085 36.3914C27.7964 36.4338 27.8403 36.4812 27.8403 36.5339L27.5649 46.0818H8.22363C8.12332 46.0846 8.02353 46.0665 7.93063 46.0286C7.85007 45.9929 7.81003 45.9446 7.81003 45.8836C7.81003 45.8226 7.85056 45.7747 7.9321 45.739C8.02615 45.7009 8.12705 45.6827 8.22849 45.6853H10.3916V22.6248Z" fill="white"/>
<path d="M32.0049 22.6248H29.8311C29.7318 22.6278 29.6331 22.609 29.542 22.5696C29.4624 22.5325 29.4233 22.4876 29.4233 22.4348C29.4233 22.3714 29.4629 22.3211 29.543 22.284C29.6355 22.2444 29.7354 22.2255 29.836 22.2283H40.04C41.6022 22.2234 43.1594 22.4047 44.6787 22.7683C45.7247 23.0299 46.7264 23.4445 47.6513 23.9988C48.4307 24.434 49.1332 24.9945 49.7304 25.658C50.3407 26.3873 50.6698 27.311 50.6582 28.262V29.9294C50.657 30.5129 50.5304 31.0892 50.287 31.6194C50.0435 32.1496 49.6888 32.6212 49.247 33.0022C48.1474 33.9631 46.8483 34.6681 45.4433 35.0662C43.8116 35.5747 42.1114 35.8291 40.4023 35.8206H39.1631V45.6853H41.2275C41.3279 45.6827 41.4277 45.701 41.5205 45.739C41.6006 45.7747 41.6407 45.8225 41.6407 45.8836C41.6407 45.9446 41.6007 45.993 41.5205 46.0286C41.428 46.0665 41.3285 46.0846 41.2285 46.0818H29.835C29.735 46.0846 29.6356 46.0664 29.543 46.0286C29.4629 45.9929 29.4234 45.9446 29.4234 45.8836C29.4234 45.8226 29.4624 45.7747 29.542 45.739C29.6335 45.7009 29.732 45.6826 29.8311 45.6853H32.0049L32.0049 22.6248ZM39.1631 22.6409V35.408H40.4365C41.1675 35.4349 41.8956 35.3024 42.5703 35.0198C42.802 34.9444 43.0052 34.8002 43.1528 34.6063C43.3004 34.4125 43.3854 34.1782 43.3965 33.9348V24.2248C43.3974 23.9624 43.3234 23.7052 43.1831 23.4835C43.0427 23.2618 42.842 23.0848 42.6045 22.9733C42.0791 22.7227 41.4991 22.6083 40.918 22.6408L39.1631 22.6409Z" fill="white"/>
</g>
<defs>
<clipPath id="clip0">
<rect width="59" height="68.1839" fill="white"/>
</clipPath>
</defs>
</svg>
