<svg xmlns="http://www.w3.org/2000/svg" viewBox="0 0 59 68.1839"><defs><style>.cls-1{fill:#008200;}.cls-2{fill:#fff;}</style></defs><title>Ресурс 1</title><g id="Слой_2" data-name="Слой 2"><g id="Слой_1-2" data-name="Слой 1"><g id="Слой_2-2" data-name="Слой 2"><g id="Слой_1-2-2" data-name="Слой 1-2"><g id="Слой_1-3" data-name="Слой 1-3"><path class="cls-1" d="M0,19.77V48.414a5.58039,5.58039,0,0,0,2.73326,4.79944L26.65287,67.403a5.5804,5.5804,0,0,0,5.69424,0L56.26673,53.21337A5.58038,5.58038,0,0,0,59,48.414V19.77a5.58039,5.58039,0,0,0-2.73325-4.79943L32.34711.781a5.58035,5.58035,0,0,0-5.69424,0L2.73326,14.97051A5.5804,5.5804,0,0,0,0,19.77Z"/><path class="cls-2" d="M10.3916,22.62465H8.25781c-.25293-.07373-.3789-.1372-.3789-.18994q0-.0952.3789-.20654H19.71826a.69621.69621,0,0,1,.29248.05567c.08008.0371.12061.082.12061.13476,0,.06348-.04053.11377-.12061.15089a.69648.69648,0,0,1-.29248.05517H17.44678V45.66909h1.45068a8.38067,8.38067,0,0,0,2.72852-.4043,5.47311,5.47311,0,0,0,2.27978-1.67334,12.05891,12.05891,0,0,0,2.36572-4.0835,15.17825,15.17825,0,0,0,.77735-2.83106.39215.39215,0,0,1,.13183-.28564l.26368-.04737.26416.04737c.08789.04248.13183.08984.13183.14257l-.27539,9.54786H8.22363a.722.722,0,0,1-.293-.05323c-.08056-.03564-.1206-.084-.1206-.145s.04053-.10888.12207-.14453a.73752.73752,0,0,1,.29639-.05371H10.3916Z"/><path class="cls-2" d="M32.00488,22.62465H29.83105a.67684.67684,0,0,1-.28906-.05517c-.07959-.03711-.11865-.082-.11865-.13477,0-.06347.03955-.11377.11963-.15088a.69555.69555,0,0,1,.293-.05566H40.04a19.668,19.668,0,0,1,4.63867.54,10.95377,10.95377,0,0,1,2.97266,1.23047,8.13266,8.13266,0,0,1,2.0791,1.65918,3.98221,3.98221,0,0,1,.92773,2.604V29.9293A4.06808,4.06808,0,0,1,49.247,33.00207a9.86954,9.86954,0,0,1-3.80371,2.064,16.66365,16.66365,0,0,1-5.041.75439H39.16309V45.6852h2.06445a.72188.72188,0,0,1,.293.05371c.08008.03565.12012.0835.12012.14453s-.04.10938-.12012.145a.71708.71708,0,0,1-.292.05324H29.835a.71879.71879,0,0,1-.292-.05324c-.08008-.03564-.11963-.084-.11963-.145s.03906-.10887.11865-.14453a.70092.70092,0,0,1,.28906-.05371h2.17383Zm7.15821.01612V35.40786h1.27343a5.04236,5.04236,0,0,0,2.13379-.38819,1.19819,1.19819,0,0,0,.82617-1.085v-9.71a1.377,1.377,0,0,0-.792-1.25146,3.46618,3.46618,0,0,0-1.68652-.33252Z"/></g></g></g></g></g></svg>